<svg width="40" height="40" viewBox="0 0 40 40" fill="none" xmlns="http://www.w3.org/2000/svg">
<path d="M0 20C0 8.95431 8.95431 0 20 0C31.0457 0 40 8.95431 40 20C40 31.0457 31.0457 40 20 40C8.95431 40 0 31.0457 0 20Z" fill="white" fill-opacity="0.1"/>
<path d="M21.0281 10.0005C22.1535 10.0023 22.7238 10.0083 23.2166 10.023L23.4107 10.0293C23.6349 10.0373 23.8561 10.0473 24.1228 10.0598C25.1869 10.109 25.9128 10.2773 26.5503 10.5248C27.2094 10.779 27.7661 11.1223 28.3219 11.6781C28.8769 12.234 29.2203 12.7923 29.4753 13.4498C29.7219 14.0865 29.8903 14.8131 29.9403 15.8773C29.9522 16.144 29.9618 16.3652 29.9697 16.5894L29.976 16.7835C29.9906 17.2762 29.9973 17.8466 29.9994 18.9721L30.0002 19.7177C30.0003 19.8088 30.0003 19.9028 30.0003 19.9998L30.0002 20.2819L29.9996 21.0276C29.9977 22.153 29.9918 22.7234 29.9771 23.2161L29.9707 23.4102C29.9628 23.6345 29.9528 23.8557 29.9403 24.1223C29.8911 25.1865 29.7219 25.9123 29.4753 26.5498C29.2211 27.209 28.8769 27.7657 28.3219 28.3215C27.7661 28.8765 27.2069 29.2198 26.5503 29.4748C25.9128 29.7215 25.1869 29.8898 24.1228 29.9398C23.8561 29.9517 23.6349 29.9614 23.4107 29.9692L23.2166 29.9755C22.7238 29.9902 22.1535 29.9968 21.0281 29.999L20.2824 29.9998C20.1913 29.9998 20.0973 29.9998 20.0003 29.9998H19.7182L18.9725 29.9991C17.8471 29.9973 17.2767 29.9913 16.784 29.9766L16.5899 29.9703C16.3656 29.9623 16.1444 29.9523 15.8778 29.9398C14.8136 29.8907 14.0886 29.7215 13.4503 29.4748C12.7919 29.2207 12.2344 28.8765 11.6786 28.3215C11.1228 27.7657 10.7803 27.2065 10.5253 26.5498C10.2778 25.9123 10.1103 25.1865 10.0603 24.1223C10.0484 23.8557 10.0387 23.6345 10.0309 23.4102L10.0246 23.2161C10.0099 22.7234 10.0033 22.153 10.0011 21.0276L10.001 18.9721C10.0028 17.8466 10.0088 17.2762 10.0235 16.7835L10.0298 16.5894C10.0378 16.3652 10.0478 16.144 10.0603 15.8773C10.1094 14.8123 10.2778 14.0873 10.5253 13.4498C10.7794 12.7915 11.1228 12.234 11.6786 11.6781C12.2344 11.1223 12.7928 10.7798 13.4503 10.5248C14.0878 10.2773 14.8128 10.1098 15.8778 10.0598C16.1444 10.0479 16.3656 10.0382 16.5899 10.0304L16.784 10.0241C17.2767 10.0094 17.8471 10.0028 18.9725 10.0006L21.0281 10.0005ZM20.0003 14.9998C17.2374 14.9998 15.0003 17.2393 15.0003 19.9998C15.0003 22.7627 17.2398 24.9998 20.0003 24.9998C22.7632 24.9998 25.0003 22.7603 25.0003 19.9998C25.0003 17.2369 22.7607 14.9998 20.0003 14.9998ZM20.0003 16.9998C21.6572 16.9998 23.0003 18.3425 23.0003 19.9998C23.0003 21.6567 21.6576 22.9998 20.0003 22.9998C18.3434 22.9998 17.0003 21.6572 17.0003 19.9998C17.0003 18.3429 18.3429 16.9998 20.0003 16.9998ZM25.2503 13.4998C24.561 13.4998 24.0003 14.0597 24.0003 14.7489C24.0003 15.4382 24.5602 15.999 25.2503 15.999C25.9395 15.999 26.5003 15.4391 26.5003 14.7489C26.5003 14.0597 25.9386 13.4989 25.2503 13.4998Z" fill="white"/>
</svg>
