<svg width="21" height="26" viewBox="0 0 21 26" fill="none" xmlns="http://www.w3.org/2000/svg">
<path d="M19.8332 14.0005C19.8332 19.8338 15.7498 22.7505 10.8965 24.4422C10.6424 24.5283 10.3663 24.5242 10.1148 24.4305C5.24984 22.7505 1.1665 19.8338 1.1665 14.0005V5.83385C1.1665 5.52443 1.28942 5.22768 1.50821 5.00889C1.72701 4.7901 2.02375 4.66718 2.33317 4.66718C4.6665 4.66718 7.58317 3.26718 9.61317 1.49385C9.86033 1.28268 10.1747 1.16666 10.4998 1.16666C10.8249 1.16666 11.1393 1.28268 11.3865 1.49385C13.4282 3.27885 16.3332 4.66718 18.6665 4.66718C18.9759 4.66718 19.2727 4.7901 19.4915 5.00889C19.7103 5.22768 19.8332 5.52443 19.8332 5.83385V14.0005Z" stroke="#E2FBA8" stroke-width="2.33333" stroke-linecap="round" stroke-linejoin="round"/>
</svg>
