<svg width="28" height="28" viewBox="0 0 28 28" fill="none" xmlns="http://www.w3.org/2000/svg">
<path d="M12.8335 23.3333C10.7849 23.3395 8.80881 22.5756 7.29712 21.193C5.78542 19.8104 4.84857 17.9101 4.67237 15.8691C4.49617 13.8281 5.09348 11.7954 6.34585 10.1742C7.59822 8.55296 9.41416 7.46163 11.4335 7.11665C18.0835 5.83331 19.8335 5.22665 22.1668 2.33331C23.3335 4.66665 24.5002 7.20998 24.5002 11.6666C24.5002 18.0833 18.9235 23.3333 12.8335 23.3333Z" stroke="#E2FBA8" stroke-width="2.33333" stroke-linecap="round" stroke-linejoin="round"/>
<path d="M2.3335 24.5C2.3335 21 4.49183 18.2467 8.26016 17.5C11.0835 16.94 14.0002 15.1667 15.1668 14" stroke="#E2FBA8" stroke-width="2.33333" stroke-linecap="round" stroke-linejoin="round"/>
</svg>
