<svg width="28" height="28" viewBox="0 0 28 28" fill="none" xmlns="http://www.w3.org/2000/svg">
<path d="M18.9466 9.05322L16.8419 15.3661C16.7273 15.7097 16.5343 16.022 16.2782 16.2782C16.022 16.5343 15.7097 16.7273 15.3661 16.8419L9.05322 18.9466L11.1579 12.6337C11.2724 12.29 11.4654 11.9778 11.7216 11.7216C11.9778 11.4654 12.29 11.2724 12.6337 11.1579L18.9466 9.05322Z" stroke="#D8FFFB" stroke-width="2.33333" stroke-linecap="round" stroke-linejoin="round"/>
<path d="M13.9999 25.6666C20.4432 25.6666 25.6666 20.4432 25.6666 13.9999C25.6666 7.5566 20.4432 2.33325 13.9999 2.33325C7.5566 2.33325 2.33325 7.5566 2.33325 13.9999C2.33325 20.4432 7.5566 25.6666 13.9999 25.6666Z" stroke="#D8FFFB" stroke-width="2.33333" stroke-linecap="round" stroke-linejoin="round"/>
</svg>
