<svg width="28" height="28" viewBox="0 0 28 28" fill="none" xmlns="http://www.w3.org/2000/svg">
<path d="M17.15 7.35008C16.9362 7.56816 16.8165 7.86136 16.8165 8.16674C16.8165 8.47212 16.9362 8.76533 17.15 8.98341L19.0166 10.8501C19.2347 11.0638 19.5279 11.1836 19.8333 11.1836C20.1387 11.1836 20.4319 11.0638 20.65 10.8501L24.2736 7.22758C24.647 6.85191 25.2805 6.97091 25.4205 7.48191C25.773 8.76393 25.753 10.1198 25.363 11.3909C24.973 12.662 24.2291 13.7958 23.2183 14.6595C22.2074 15.5232 20.9715 16.0812 19.6551 16.2682C18.3387 16.4551 16.9963 16.2632 15.785 15.7151L6.55664 24.9434C6.09251 25.4074 5.46308 25.668 4.80681 25.6679C4.15054 25.6678 3.5212 25.407 3.05723 24.9428C2.59325 24.4787 2.33265 23.8493 2.33276 23.193C2.33287 22.5367 2.59368 21.9074 3.05781 21.4434L12.2861 12.2151C11.738 11.0037 11.5461 9.66134 11.7331 8.34495C11.92 7.02856 12.478 5.79263 13.3417 4.78179C14.2054 3.77095 15.3392 3.027 16.6103 2.63701C17.8814 2.24701 19.2373 2.22709 20.5193 2.57958C21.0303 2.71958 21.1493 3.35191 20.7748 3.72758L17.15 7.35008Z" stroke="#FFE9D9" stroke-width="2.33333" stroke-linecap="round" stroke-linejoin="round"/>
</svg>
