<svg width="28" height="28" viewBox="0 0 28 28" fill="none" xmlns="http://www.w3.org/2000/svg">
<path d="M12.8333 23.3333C10.7847 23.3395 8.80856 22.5755 7.29687 21.1929C5.78518 19.8103 4.84833 17.9101 4.67213 15.869C4.49592 13.828 5.09324 11.7953 6.34561 10.1741C7.59798 8.55289 9.41392 7.46157 11.4333 7.11659C18.0833 5.83325 19.8333 5.22659 22.1666 2.33325C23.3333 4.66659 24.4999 7.20992 24.4999 11.6666C24.4999 18.0833 18.9233 23.3333 12.8333 23.3333Z" stroke="#FFFBD9" stroke-width="2.33333" stroke-linecap="round" stroke-linejoin="round"/>
<path d="M2.33337 24.5C2.33337 21 4.49171 18.2467 8.26004 17.5C11.0834 16.94 14 15.1667 15.1667 14" stroke="#FFFBD9" stroke-width="2.33333" stroke-linecap="round" stroke-linejoin="round"/>
</svg>
