<svg width="24" height="24" viewBox="0 0 24 24" fill="none" xmlns="http://www.w3.org/2000/svg">
<path d="M15.477 12.89L16.992 21.416C17.009 21.5164 16.9949 21.6196 16.9516 21.7118C16.9084 21.8039 16.838 21.8807 16.75 21.9318C16.6619 21.9829 16.5603 22.0059 16.4588 21.9977C16.3573 21.9895 16.2608 21.9506 16.182 21.886L12.602 19.199C12.4292 19.0699 12.2193 19.0001 12.0035 19.0001C11.7878 19.0001 11.5779 19.0699 11.405 19.199L7.81903 21.885C7.74035 21.9494 7.64389 21.9884 7.54252 21.9966C7.44115 22.0048 7.3397 21.9818 7.25169 21.9309C7.16368 21.8799 7.0933 21.8033 7.04994 21.7113C7.00659 21.6194 6.99231 21.5163 7.00903 21.416L8.52303 12.89" stroke="#E2FBA8" stroke-width="2" stroke-linecap="round" stroke-linejoin="round"/>
<path d="M12 14C15.3137 14 18 11.3137 18 8C18 4.68629 15.3137 2 12 2C8.68629 2 6 4.68629 6 8C6 11.3137 8.68629 14 12 14Z" stroke="#E2FBA8" stroke-width="2" stroke-linecap="round" stroke-linejoin="round"/>
</svg>
